# xmcd
#
# Track frame offsets:
#  150
#  16537
#  38190
#  53355
#  64522
#  81223
#  96457
#  107235
#  118903
#
# Disc length: 1774 seconds
#
# Revision: 1
# Processed by: cddbd v1.5.1PL0 Copyright (c) Steve Scherf et al.
# Submitted via: Collectorz.com_Music_Collector 6.9
#
DISCID=6a06ec09
DTITLE=Honey Davis - Prince Of The Blues
DYEAR=2004
DGENRE=Blues Rock
TTITLE0=Prince Of The Blues
TTITLE1=Do The Step
TTITLE2=Pretty Kitten
TTITLE3=Change My Name
TTITLE4=First Time I Met You
TTITLE5=It's A Poor Dog
TTITLE6=Don't Laugh At Me
TTITLE7=Small Apartment
TTITLE8=Scratchy
EXTD=
EXTT0=
EXTT1=
EXTT2=
EXTT3=
EXTT4=
EXTT5=
EXTT6=
EXTT7=
EXTT8=
PLAYORDER=
